<svg xmlns="http://www.w3.org/2000/svg" width="64" height="64" viewBox="0 0 64 64"><circle cx="32" cy="32" r="32" fill="#4C86EC"/><rect x="26" y="10" width="24" height="24" rx="3.5" fill="none" stroke="#FFFFFF" stroke-width="2.2" stroke-opacity="0.45"/><rect x="22" y="14" width="24" height="24" rx="3.5" fill="none" stroke="#FFFFFF" stroke-width="2.2" stroke-opacity="0.7"/><rect x="14" y="22" width="7" height="7" rx="1.6" fill="#FFFFFF"/><rect x="22.6" y="22" width="7" height="7" rx="1.6" fill="#FFFFFF"/><rect x="31.2" y="22" width="7" height="7" rx="1.6" fill="#FFFFFF"/><rect x="14" y="30.6" width="7" height="7" rx="1.6" fill="#FFFFFF"/><rect x="22.6" y="30.6" width="7" height="7" rx="1.6" fill="#FFFFFF"/><rect x="31.2" y="30.6" width="7" height="7" rx="1.6" fill="#FFFFFF"/><rect x="14" y="39.2" width="7" height="7" rx="1.6" fill="#FFFFFF"/><rect x="22.6" y="39.2" width="7" height="7" rx="1.6" fill="#FFFFFF"/><rect x="31.2" y="39.2" width="7" height="7" rx="1.6" fill="#FFFFFF"/></svg>
